<?xml version="1.0" standalone="no" ?>
<!DOCTYPE svg PUBLIC "-//W3C//DTD SVG 1.1//EN" "http://www.w3.org/Graphics/SVG/1.1/DTD/svg11.dtd">
<svg t="1734344314357" class="icon" viewBox="0 0 1024 1024" version="1.1" xmlns="http://www.w3.org/2000/svg" p-id="38079" xmlns:xlink="http://www.w3.org/1999/xlink" width="256" height="256"><path d="M811.008 171.093333a127.573333 127.573333 0 0 1 115.328 73.130667l1.450667 1.493333-0.512 0.554667a128 128 0 0 1 11.093333 43.690667l0.298667 9.386666v426.154667c0 68.266667-53.12 124.117333-120.277334 128l-7.509333 0.213333H213.12a127.744 127.744 0 0 1-127.402667-120.746666L85.504 725.333333l0.938667-426.154666a128.426667 128.426667 0 0 1 12.629333-55.424l-0.213333-0.170667 0.554666-0.554667a127.872 127.872 0 0 1 106.026667-71.68l8.832-0.341333h596.736zM378.24 528.213333l-178.005333 238.122667a41.813333 41.813333 0 0 0 8.448 1.792l4.437333 0.213333h597.76c4.693333 0 9.216-0.768 13.44-2.176l-173.738667-237.226666-20.48 20.992a163.114667 163.114667 0 0 1-223.317333 6.741333l-6.826667-6.314667-21.717333-22.144zM171.733333 317.866667l-0.768 345.173333 146.816-196.352L171.690667 317.866667z m681.557334 3.968l-142.208 145.322666L853.333333 661.248V321.792zM797.909333 256.426667H230.954667l229.376 233.685333a77.653333 77.653333 0 0 0 103.978666 4.608l5.12-4.693333 228.48-233.6z" fill="#8a8a8a" p-id="38080"></path></svg>