<?xml version="1.0" encoding="UTF-8" ?>
<svg id="_图层_1" data-name="图层 1" xmlns="http://www.w3.org/2000/svg" width="18.87" height="19.75" viewBox="0 0 18.87 19.75">
    <defs>
        <style>
            .cls-1, .cls-2 {
                fill: #0d6efd;
            }

            .cls-2 {
                fill-rule: evenodd;
            }
        </style>
    </defs>
    <path class="cls-1" d="m9.36,6.88c-1.65,0-2.98,1.4-2.98,3.12s1.33,3.12,2.98,3.12,2.98-1.4,2.98-3.12-1.33-3.12-2.98-3.12Z" />
    <path class="cls-2" d="m16.57,19.75h-7.3c-5.14-.09-9.27-4.48-9.27-9.88S4.23,0,9.44,0s9.3,4.28,9.44,9.61l-.02,8.02c-.14,1.2-1.11,2.12-2.29,2.12ZM3.39,8.46c.62-2.91,3.1-5.09,6.07-5.09,3.44,0,6.22,2.91,6.22,6.51,0,.03,0,.06,0,.09,0,.06,0,.13,0,.18v6.2h-3.24v-.75c-.89.51-1.9.8-2.98.8-2.97,0-5.46-2.18-6.07-5.09.59-.17,1.03-.74,1.03-1.42s-.43-1.24-1.03-1.42Zm-.41,2.45c.55,0,1-.47,1-1.04s-.45-1.04-1-1.04-1,.47-1,1.04.45,1.04,1,1.04Z" />
</svg>