<?xml version="1.0" encoding="utf-8" ?>
<!-- Generator: $$$/GeneralStr/196=Adobe Illustrator 27.6.0, SVG Export Plug-In . SVG Version: 6.00 Build 0)  -->
<svg version="1.1" id="图层_1" xmlns="http://www.w3.org/2000/svg" xmlns:xlink="http://www.w3.org/1999/xlink" x="0px" y="0px"
     viewBox="0 0 280 256" style="enable-background:new 0 0 280 256;" xml:space="preserve">
<style type="text/css">
    .st0 {
        fill: url(#SVGID_1_);
    }
</style>
<linearGradient id="SVGID_1_" gradientUnits="userSpaceOnUse" x1="140.0341" y1="267.262" x2="140.0341" y2="-12.8062">
<stop offset="1.059638e-08" style="stop-color:#FF9966" />
<stop offset="1" style="stop-color:#FF5E62" />
</linearGradient>
<path class="st0" d="M240.2,36.9l-10.9-21.8C224.7,5.8,215.2,0,204.9,0h-50.5c-10.4,0-19.9,5.8-24.5,15.1l-10.7,21.4H91.3v-9.1
	C91.3,12.3,79,0,63.9,0C48.8,0,36.5,12.3,36.5,27.4v10C15.7,41.7,0,60.1,0,82.2v127.9c0,25.2,20.5,45.7,45.7,45.7h188.7
	c25.2,0,45.7-20.5,45.7-45.7V82.2C280.1,59,262.7,39.8,240.2,36.9z M146.2,23.3c1.5-3.1,4.7-5.1,8.2-5h50.5c3.5,0,6.6,1.9,8.2,5
	l6.6,13.2h-80L146.2,23.3L146.2,23.3z M54.8,27.4c0-5,4.1-9.1,9.1-9.1c5,0,9.1,4.1,9.1,9.1v9.1H54.8L54.8,27.4L54.8,27.4z
	 M18.3,127.9h75.4c-1.5,6-2.3,12.1-2.3,18.3c0,12.8,3.4,25.4,9.8,36.5H18.3V127.9z M261.8,210.1c0,15.1-12.3,27.4-27.4,27.4H45.7
	c-15.1,0-27.4-12.3-27.4-27.4v-9.1h97.9c12.9,11.4,29.8,18.3,48.3,18.3c18.5,0,35.4-6.9,48.3-18.3h49.1L261.8,210.1L261.8,210.1z
	 M109.6,146.1c0-30.2,24.6-54.8,54.8-54.8c30.2,0,54.8,24.6,54.8,54.8c0,30.2-24.6,54.8-54.8,54.8
	C134.2,200.9,109.6,176.3,109.6,146.1z M261.8,182.7h-34.2c6.4-11.1,9.8-23.7,9.8-36.5c0-6.3-0.8-12.4-2.3-18.3h26.7L261.8,182.7
	L261.8,182.7z M261.8,109.6h-34.2c-12.7-21.8-36.3-36.5-63.3-36.5c-27,0-50.6,14.7-63.3,36.5H18.3V82.2c0-15.1,12.3-27.4,27.4-27.4
	h188.7l0.1,0h0c15.1,0,27.4,12.3,27.4,27.4L261.8,109.6L261.8,109.6z M164.4,109.6c20.1,0,36.5,16.4,36.5,36.5s-16.4,36.5-36.5,36.5
	c-20.1,0-36.5-16.4-36.5-36.5S144.2,109.6,164.4,109.6L164.4,109.6z M164.4,164.4c10.1,0,18.3-8.2,18.3-18.3
	c0-10.1-8.2-18.3-18.3-18.3c-10.1,0-18.3,8.2-18.3,18.3S154.3,164.4,164.4,164.4z M45.7,91.3c5,0,9.1-4.1,9.1-9.1s-4.1-9.1-9.1-9.1
	c-5,0-9.1,4.1-9.1,9.1S40.6,91.3,45.7,91.3L45.7,91.3z" />
</svg>