<?xml version="1.0" standalone="no" ?>
<!DOCTYPE svg PUBLIC "-//W3C//DTD SVG 1.1//EN" "http://www.w3.org/Graphics/SVG/1.1/DTD/svg11.dtd">
<svg t="1734184212627" class="icon" viewBox="0 0 1024 1024" version="1.1" xmlns="http://www.w3.org/2000/svg" p-id="7043" xmlns:xlink="http://www.w3.org/1999/xlink" width="256" height="256"><path d="M170.666667 85.333333 853.333333 85.333333C900.266667 85.333333 938.666667 123.733333 938.666667 170.666667L938.666667 853.333333C938.666667 900.266667 900.266667 938.666667 853.333333 938.666667L633.6 938.666667C618.666667 935.253333 618.666667 906.24 618.666667 896L618.666667 779.093333C618.666667 739.413333 604.586667 713.386667 589.226667 700.16 684.373333 689.493333 784.213333 653.653333 784.213333 490.666667 784.213333 443.306667 768 405.333333 740.266667 375.04 744.533333 364.373333 759.466667 320 736 262.4 736 262.4 700.16 250.88 618.666667 305.92 584.96 296.533333 548.266667 291.84 512 291.84 475.733333 291.84 439.04 296.533333 405.333333 305.92 323.84 250.88 288 262.4 288 262.4 264.533333 320 279.466667 364.373333 283.733333 375.04 256 405.333333 239.786667 443.306667 239.786667 490.666667 239.786667 653.226667 339.2 689.92 433.92 700.586667 421.973333 711.253333 410.88 730.026667 407.04 757.76 382.72 768 320 787.2 282.88 722.346667 282.88 722.346667 260.266667 681.386667 217.6 678.4 217.6 678.4 175.786667 677.546667 213.333333 704 213.333333 704 242.346667 717.226667 261.973333 766.72 261.973333 766.72 287.146667 849.493333 405.333333 823.893333L405.333333 896C405.333333 906.24 405.333333 935.253333 389.973333 938.666667L170.666667 938.666667C123.733333 938.666667 85.333333 900.266667 85.333333 853.333333L85.333333 170.666667C85.333333 123.733333 123.733333 85.333333 170.666667 85.333333Z" p-id="7044"></path></svg>