<?xml version="1.0" encoding="UTF-8" ?>
<svg xmlns="http://www.w3.org/2000/svg" xmlns:xlink="http://www.w3.org/1999/xlink" viewBox="0 0 1394.04 1009.53">
    <defs>
        <style>
            .cls-1 {
                fill: #fff;
            }

            .cls-2 {
                fill: url(#_未命名的渐变_4-2);
            }

            .cls-3 {
                opacity: .62;
            }

            .cls-3, .cls-4, .cls-5, .cls-6 {
                fill: none;
            }

            .cls-7 {
                fill: url(#_未命名的渐变_4);
            }

            .cls-4 {
                stroke: url(#_未命名的渐变_14);
                stroke-width: 15px;
            }

            .cls-4, .cls-8, .cls-5, .cls-6 {
                stroke-miterlimit: 10;
            }

            .cls-4, .cls-5 {
                stroke-linecap: round;
            }

            .cls-8 {
                fill: #ff5e62;
            }

            .cls-8, .cls-6 {
                stroke: #ff5e62;
                stroke-width: 18px;
            }

            .cls-5 {
                stroke: url(#_未命名的渐变_35);
                stroke-width: 22px;
            }
        </style>
        <linearGradient id="_未命名的渐变_35" data-name="未命名的渐变 35" x1="602.92" y1="579.44" x2="848.15" y2="579.44" gradientUnits="userSpaceOnUse">
            <stop offset="0" stop-color="#f96" />
            <stop offset="1" stop-color="#ff5e62" />
        </linearGradient>
        <linearGradient id="_未命名的渐变_4" data-name="未命名的渐变 4" x1="632.38" y1="1180.54" x2="632.38" y2="1510.89" gradientTransform="translate(94 1874.46) scale(1 -1)" gradientUnits="userSpaceOnUse">
            <stop offset="0" stop-color="#f96" />
            <stop offset="1" stop-color="#ff5e62" />
        </linearGradient>
        <linearGradient id="_未命名的渐变_4-2" data-name="未命名的渐变 4" x1="819.61" y1="599.5" x2="819.61" y2="625.55" gradientTransform="matrix(1,0,0,1,0,0)" xlink:href="#_未命名的渐变_4" />
        <linearGradient id="_未命名的渐变_14" data-name="未命名的渐变 14" x1="606.42" y1="611.49" x2="687.86" y2="611.49" gradientUnits="userSpaceOnUse">
            <stop offset="0" stop-color="#f96" />
            <stop offset="1" stop-color="#ff5e62" />
        </linearGradient>
    </defs>
    <g id="_图层_4" data-name="图层 4">
        <rect class="cls-1" x="499.14" y="302.08" width="453.26" height="453.26" rx="122.55" ry="122.55" />
    </g>
    <g id="_图层_1" data-name="图层 1">
        <line class="cls-5" x1="613.92" y1="579.44" x2="837.15" y2="579.44" />
        <g>
            <path class="cls-7" d="m844.15,422.2l-12.82-25.71c-5.41-10.97-16.58-17.81-28.69-17.81h-59.38c-12.23,0-23.4,6.84-28.81,17.81l-12.58,25.24h-32.81v-10.73c0-17.81-14.46-32.32-32.22-32.32s-32.22,14.51-32.22,32.32v11.8c-24.46,5.07-42.92,26.78-42.92,52.84v150.86c0,29.72,24.11,53.91,53.74,53.91h221.89c29.63,0,53.74-24.18,53.74-53.91v-150.86c0-27.37-20.46-50.01-46.92-53.43Zm-111.86-17.93c1.65-3.41,5.16-5.6,9.01-5.49h55.48c3.85,0,7.25,2.09,9.01,5.49l7.25,14.5h-87.89l7.14-14.5h0Zm-100.41,4.5c0-5.49,4.5-10,10-10s10,4.5,10,10v10h-19.99v-10h0Zm227.41,200.72h0c0,16.59-13.51,30.1-30.1,30.1h-207.31c-16.59,0-30.1-13.51-30.1-30.1v-23.02s0-108.38,0-108.38c0-16.59,13.51-30.1,30.1-30.1h207.42c16.59,0,30.1,13.51,30.1,30.1l.06,108.38-.17,23.02Z" />
            <path class="cls-2" d="m819.61,624.36c6.67,0,12.14-5.36,12.14-11.9s-5.47-11.9-12.14-11.9-12.14,5.36-12.14,11.9,5.33,11.9,12.14,11.9h0Z" />
        </g>
        <g class="cls-3">
            <path class="cls-8" d="m775.93,557.63c-2.2.31-4.42-1.34-5.13-3.52-8.62-26.35-21.58-49.88-27.2-49.09h-.05c-2.83.41-12.19,11.18-17.16,39.66-.44,2.55-2.82,4.42-5.38,3.98-2.54-.44-4.28-3.12-3.84-5.66,6.67-38.18,18.76-46.32,24.84-47.18l.26-.04c16.69-2.35,31.72,38.04,37.4,55.43.8,2.46-.51,5.27-2.97,6.06-.26.08-.51.32-.78.35Z" />
            <path class="cls-8" d="m650.77,557.66c-.38,0-.76-.05-1.14-.14-2.5-.63-4.02-2.36-3.4-4.86,3.23-12.93,20.5-74.57,43.15-74.57h.31c13.75,0,25.8,21.52,35.82,65.57.57,2.51-1,4.62-3.52,5.19-2.51.59-5.02-1.21-5.59-3.72-9.34-41.05-20.23-59.37-26.79-59.2-10.31.26-25.84,34.34-34.32,68.24-.52,2.07-2.39,3.51-4.52,3.49h0Z" />
            <path class="cls-6" d="m810.35,469.06c-11.35-1.83-21.38,7.41-20.44,18.91.66,8.08,6.99,14.79,15.02,15.94,11.32,1.62,21.23-7.74,20.09-19.28-.78-7.88-6.86-14.31-14.67-15.57Z" />
        </g>
        <line class="cls-4" x1="613.92" y1="611.49" x2="680.36" y2="611.49" />
    </g>
</svg>